<svg width="1600" height="620" viewBox="0 0 1600 620" fill="none" xmlns="http://www.w3.org/2000/svg">
<rect width="1600" height="620" rx="36" fill="url(#bg)"/>
<circle cx="1360" cy="128" r="170" fill="#fff" fill-opacity="0.09"/>
<circle cx="1210" cy="490" r="220" fill="#fff" fill-opacity="0.07"/>
<path d="M1270 210h106c25 0 46 21 46 46v118c0 25-21 46-46 46h-106c-25 0-46-21-46-46V256c0-25 21-46 46-46Z" fill="#E0F2FE" fill-opacity="0.95"/>
<path d="M1248 257h150" stroke="#0F172A" stroke-width="18" stroke-linecap="round"/>
<path d="M1290 182c0-35 28-63 63-63s63 28 63 63" stroke="#E0F2FE" stroke-width="18" stroke-linecap="round"/>
<text x="92" y="178" fill="#DBEAFE" font-family="Arial, Helvetica, sans-serif" font-size="34" font-weight="700">Destaque da semana</text>
<text x="92" y="282" fill="white" font-family="Arial, Helvetica, sans-serif" font-size="82" font-weight="800">Dia dos Pais</text>
<text x="92" y="350" fill="#DDEAFE" font-family="Arial, Helvetica, sans-serif" font-size="34">Arte exclusiva para copos, camisetas, kits e brindes personalizados.</text>
<rect x="92" y="404" width="254" height="66" rx="33" fill="#fff" fill-opacity="0.16"/>
<text x="126" y="446" fill="white" font-family="Arial, Helvetica, sans-serif" font-size="30" font-weight="700">Quero ver</text>
<defs>
<linearGradient id="bg" x1="0" y1="0" x2="1600" y2="620" gradientUnits="userSpaceOnUse">
<stop stop-color="#0F172A"/>
<stop offset="0.58" stop-color="#1D4ED8"/>
<stop offset="1" stop-color="#60A5FA"/>
</linearGradient>
</defs>
</svg>
