<svg width="1600" height="620" viewBox="0 0 1600 620" fill="none" xmlns="http://www.w3.org/2000/svg">
<rect width="1600" height="620" rx="36" fill="url(#bg)"/>
<circle cx="1370" cy="138" r="172" fill="#fff" fill-opacity="0.11"/>
<circle cx="1200" cy="500" r="230" fill="#fff" fill-opacity="0.09"/>
<path d="M1280 390c44-32 69-82 69-131 0-45-27-72-67-72-33 0-54 17-69 44-15-27-36-44-69-44-40 0-67 27-67 72 0 49 25 99 69 131l67 49 67-49Z" fill="#FEF2F2"/>
<text x="92" y="178" fill="#fff" font-family="Arial, Helvetica, sans-serif" font-size="34" font-weight="700">Banner promocional</text>
<text x="92" y="282" fill="#fff" font-family="Arial, Helvetica, sans-serif" font-size="82" font-weight="800">Dia das Mães</text>
<text x="92" y="350" fill="#FCE7F3" font-family="Arial, Helvetica, sans-serif" font-size="34">Surpreenda com kits exclusivos, canecas e presentes com carinho.</text>
<rect x="92" y="404" width="268" height="66" rx="33" fill="#fff" fill-opacity="0.18"/>
<text x="126" y="446" fill="#fff" font-family="Arial, Helvetica, sans-serif" font-size="30" font-weight="700">Criar presente</text>
<defs>
<linearGradient id="bg" x1="0" y1="0" x2="1600" y2="620" gradientUnits="userSpaceOnUse">
<stop stop-color="#9D174D"/>
<stop offset="0.54" stop-color="#DB2777"/>
<stop offset="1" stop-color="#F472B6"/>
</linearGradient>
</defs>
</svg>
