<svg width="1600" height="620" viewBox="0 0 1600 620" fill="none" xmlns="http://www.w3.org/2000/svg">
<rect width="1600" height="620" rx="36" fill="url(#bg)"/>
<circle cx="1390" cy="110" r="160" fill="#fff" fill-opacity="0.1"/>
<circle cx="1250" cy="460" r="210" fill="#fff" fill-opacity="0.1"/>
<ellipse cx="1285" cy="320" rx="92" ry="128" fill="#FFF7ED"/>
<path d="M1284 238c0-28 17-44 43-44 21 0 34 13 41 29 7-16 20-29 41-29 26 0 43 16 43 44 0 58-54 95-84 117-30-22-84-59-84-117Z" fill="#FB923C"/>
<ellipse cx="1230" cy="300" rx="34" ry="54" fill="#FDE68A"/>
<text x="92" y="178" fill="#4A2104" font-family="Arial, Helvetica, sans-serif" font-size="34" font-weight="700">Coleção sazonal</text>
<text x="92" y="282" fill="#4A2104" font-family="Arial, Helvetica, sans-serif" font-size="82" font-weight="800">Páscoa criativa</text>
<text x="92" y="350" fill="#7C3D12" font-family="Arial, Helvetica, sans-serif" font-size="34">Presentes temáticos, embalagens doces e arte personalizada.</text>
<rect x="92" y="404" width="264" height="66" rx="33" fill="#4A2104" fill-opacity="0.14"/>
<text x="126" y="446" fill="#4A2104" font-family="Arial, Helvetica, sans-serif" font-size="30" font-weight="700">Ver ofertas</text>
<defs>
<linearGradient id="bg" x1="0" y1="0" x2="1600" y2="620" gradientUnits="userSpaceOnUse">
<stop stop-color="#FEF3C7"/>
<stop offset="0.48" stop-color="#FDE68A"/>
<stop offset="1" stop-color="#FDBA74"/>
</linearGradient>
</defs>
</svg>
